<svg width="30" height="35" viewBox="0 0 30 35" fill="none" xmlns="http://www.w3.org/2000/svg">
<path d="M7 33C6.45 33 5.97933 32.8043 5.588 32.413C5.196 32.021 5 31.55 5 31C5 30.45 5.196 29.979 5.588 29.587C5.97933 29.1957 6.45 29 7 29C7.55 29 8.02067 29.1957 8.412 29.587C8.804 29.979 9 30.45 9 31C9 31.55 8.804 32.021 8.412 32.413C8.02067 32.8043 7.55 33 7 33ZM17 33C16.45 33 15.9793 32.8043 15.588 32.413C15.196 32.021 15 31.55 15 31C15 30.45 15.196 29.979 15.588 29.587C15.9793 29.1957 16.45 29 17 29C17.55 29 18.021 29.1957 18.413 29.587C18.8043 29.979 19 30.45 19 31C19 31.55 18.8043 32.021 18.413 32.413C18.021 32.8043 17.55 33 17 33ZM6.15 17L8.55 22H15.55L18.3 17H6.15ZM5.2 15H19.95C20.4 15 20.7083 15.1667 20.875 15.5C21.0417 15.8333 21.0333 16.1833 20.85 16.55L17.3 22.95C17.1167 23.2833 16.875 23.5417 16.575 23.725C16.275 23.9083 15.9333 24 15.55 24H8.1L7 26H19V28H7C6.25 28 5.68333 27.6707 5.3 27.012C4.91667 26.354 4.9 25.7 5.25 25.05L6.6 22.6L3 15H1V13H4.25L5.2 15Z" fill="#1C1B1F"/>
<path d="M21 17.5C25.6944 17.5 29.5 13.6944 29.5 9C29.5 4.30558 25.6944 0.5 21 0.5C16.3056 0.5 12.5 4.30558 12.5 9C12.5 13.6944 16.3056 17.5 21 17.5Z" fill="#FF6243" stroke="white"/>
</svg>
