<svg width="20" height="20" viewBox="0 0 20 20" fill="none" xmlns="http://www.w3.org/2000/svg">
<path d="M6.66663 9.16667V5.83333C6.66663 4.94928 7.01782 4.10143 7.64294 3.47631C8.26806 2.85119 9.1159 2.5 9.99996 2.5C10.884 2.5 11.7319 2.85119 12.357 3.47631C12.9821 4.10143 13.3333 4.94928 13.3333 5.83333V9.16667M5.83329 9.16667H14.1666C15.0871 9.16667 15.8333 9.91286 15.8333 10.8333V15.8333C15.8333 16.7538 15.0871 17.5 14.1666 17.5H5.83329C4.91282 17.5 4.16663 16.7538 4.16663 15.8333V10.8333C4.16663 9.91286 4.91282 9.16667 5.83329 9.16667ZM10.8333 13.3333C10.8333 13.7936 10.4602 14.1667 9.99996 14.1667C9.53972 14.1667 9.16663 13.7936 9.16663 13.3333C9.16663 12.8731 9.53972 12.5 9.99996 12.5C10.4602 12.5 10.8333 12.8731 10.8333 13.3333Z" stroke="#718096" stroke-width="1.5" stroke-linecap="round" stroke-linejoin="round"/>
</svg>
