<svg width="53" height="52" viewBox="0 0 53 52" fill="none" xmlns="http://www.w3.org/2000/svg">
<g clip-path="url(#clip0_94_2448)">
<path d="M45.4388 23.1687C45.3613 24.688 44.1077 25.8781 42.5847 25.8781C41.0113 25.8781 39.7312 24.5971 39.7312 23.0225H39.0895C39.0895 24.5971 37.8094 25.8781 36.2361 25.8781C34.6627 25.8781 33.3826 24.5971 33.3826 23.0225H32.7409C32.7409 24.5971 31.4598 25.8781 29.8852 25.8781C28.3119 25.8781 27.0318 24.5971 27.0318 23.0225H26.3901C26.3901 24.5971 25.11 25.8781 23.5366 25.8781C21.9633 25.8781 20.6834 24.5971 20.6834 23.0225H20.0418C20.0418 24.5971 18.7595 25.8781 17.1837 25.8781C15.612 25.8781 14.3331 24.5971 14.3331 23.0225H13.6915C13.6915 24.5971 12.4102 25.8781 10.8351 25.8781C9.26172 25.8781 7.98163 24.5971 7.98163 23.0225H7.33995C7.33995 23.0813 7.33803 23.1383 7.33437 23.1952L7.33335 42.1048L7.9472 42.2354C8.51148 40.9697 9.77248 40.1518 11.1601 40.1518C13.1016 40.1518 14.681 41.7313 14.681 43.6727C14.681 44.4852 14.4113 45.2483 13.901 45.8795L14.1722 46.4013C14.1973 46.3996 14.2221 46.3978 14.2488 46.3978C15.1312 46.3978 15.849 47.1155 15.849 47.9978C15.849 48.8801 15.1312 49.5978 14.2473 49.5978L7.65267 49.6278L7.33325 49.9614L7.65409 50.2822H39.9385V49.6406C38.9891 49.6406 38.2166 48.8682 38.2166 47.9187C38.2166 47.0686 38.8514 46.3371 39.6931 46.2171L39.9615 45.8326C39.9222 45.6475 39.9022 45.4606 39.9022 45.2769C39.9022 43.8085 41.0969 42.6139 42.5654 42.6139C43.8682 42.6139 44.9973 43.5853 45.1914 44.8734L45.7443 45.0433C45.8133 44.9687 45.8861 44.9002 45.9609 44.8398L46.08 44.5903V23.185L45.4388 23.1687ZM45.4384 43.6576C44.8656 42.6476 43.776 41.9723 42.5655 41.9723C40.7432 41.9723 39.2606 43.4548 39.2606 45.277C39.2606 45.4009 39.268 45.5259 39.2824 45.6508C38.2895 45.9385 37.5751 46.862 37.5751 47.9188C37.5751 48.5969 37.8621 49.2092 38.3211 49.6407H15.7728C16.2142 49.231 16.4907 48.6462 16.4907 47.998C16.4907 46.928 15.737 46.0307 14.7329 45.8089C15.1204 45.1667 15.3228 44.4384 15.3228 43.6729C15.3228 41.3776 13.4555 39.5103 11.1602 39.5103C9.91365 39.5103 8.7532 40.0687 7.97513 40.9936V25.0311C8.60806 25.9309 9.65416 26.52 10.835 26.52C12.2417 26.52 13.457 25.6856 14.012 24.486C14.566 25.6856 15.7794 26.52 17.1836 26.52C18.5908 26.52 19.8071 25.6854 20.3623 24.4856C20.9166 25.6854 22.1312 26.52 23.5365 26.52C24.942 26.52 26.1562 25.6856 26.7109 24.486C27.2654 25.6856 28.4798 26.52 29.8851 26.52C31.2916 26.52 32.5066 25.6856 33.0617 24.4858C33.6161 25.6856 34.8304 26.52 36.236 26.52C37.6414 26.52 38.8557 25.6856 39.4102 24.486C39.9649 25.6856 41.1792 26.52 42.5846 26.52C43.7589 26.52 44.8028 25.9418 45.4382 25.049V43.6576H45.4384Z" fill="#4A555F"/>
<path d="M42.5848 27.2684C41.3228 27.2684 40.1892 26.7145 39.4105 25.8374C38.6319 26.7144 37.4982 27.2684 36.2361 27.2684C34.9741 27.2684 33.8404 26.7145 33.0618 25.8374C32.2831 26.7144 31.1474 27.2684 29.8853 27.2684C28.6233 27.2684 27.4897 26.7145 26.7111 25.8374C25.9324 26.7144 24.7988 27.2684 23.5368 27.2684C22.2748 27.2684 21.1389 26.7145 20.3624 25.8374C19.5838 26.7144 18.448 27.2684 17.1838 27.2684C15.9218 27.2684 14.7881 26.7145 14.0095 25.8374C13.2309 26.7144 12.0972 27.2684 10.8352 27.2684C10.0672 27.2684 9.34635 27.0631 8.72388 26.7038V39.4097C9.45117 38.9926 10.2875 38.7615 11.1603 38.7615C13.8683 38.7615 16.0715 40.9648 16.0715 43.6728C16.0715 44.2696 15.9603 44.8601 15.7507 45.414C16.6406 45.9316 17.2395 46.8964 17.2395 47.9979C17.2395 48.3102 17.1925 48.6096 17.1026 48.892H21.9817V33.1658H32.0716V48.892H36.9828C36.8823 48.5862 36.8266 48.2588 36.8266 47.9187C36.8266 46.7359 37.5069 45.6792 38.5143 45.1551C38.5785 42.9775 40.371 41.2236 42.5656 41.2236C43.3358 41.2236 44.0672 41.446 44.6897 41.8353V26.7123C44.0694 27.0674 43.3485 27.2684 42.5848 27.2684ZM17.0768 35.9915C16.4672 36.6011 15.6222 36.9796 14.6918 36.9796C12.8287 36.9796 11.3185 35.4695 11.3185 33.6063C11.3185 32.6737 11.695 31.831 12.3067 31.2192C12.9163 30.6095 13.7613 30.2309 14.6917 30.2309C15.6221 30.2309 16.4671 30.6095 17.0767 31.2192C17.6884 31.8309 18.0649 32.6737 18.0649 33.6063C18.065 34.5391 17.6886 35.3818 17.0768 35.9915ZM41.3762 35.9915C40.7666 36.6011 39.9216 36.9796 38.9912 36.9796C37.1282 36.9796 35.6179 35.4695 35.6179 33.6063C35.6179 32.6737 35.9944 31.831 36.6061 31.2192C37.2157 30.6095 38.0607 30.2309 38.9911 30.2309C39.9215 30.2309 40.7665 30.6095 41.3761 31.2192C41.9878 31.8309 42.3643 32.6737 42.3643 33.6063C42.3645 34.5391 41.988 35.3818 41.3762 35.9915Z" fill="white"/>
<path d="M52.99 49.6411H1.31006V50.2828H52.99V49.6411Z" fill="#4A555F"/>
<path d="M2.44312 21.3533V23.023C2.44312 24.149 3.35931 25.065 4.48523 25.065C5.61115 25.065 6.52715 24.1489 6.52715 23.023V21.3533H2.44312Z" fill="white"/>
<path d="M7.33948 19.8997V23.0233C7.33948 24.951 8.90781 26.5193 10.8355 26.5193C12.7641 26.5193 14.3331 24.951 14.3331 23.0233V19.8997H7.33948ZM13.6914 23.0233C13.6914 24.5971 12.4103 25.8776 10.8355 25.8776C9.26165 25.8776 7.98115 24.5972 7.98115 23.0233V20.5413H13.6914V23.0233Z" fill="#4A555F"/>
<path d="M8.79333 21.3533V23.023C8.79333 24.149 9.70953 25.065 10.8355 25.065C11.9614 25.065 12.8774 24.1489 12.8774 23.023V21.3533H8.79333Z" fill="white"/>
<path d="M15.1434 21.3533V23.023C15.1434 24.149 16.0596 25.065 17.1855 25.065C18.3115 25.065 19.2275 24.1489 19.2275 23.023V21.3533H15.1434Z" fill="white"/>
<path d="M20.0398 19.8997L20.0417 23.0233C20.0417 24.951 21.6092 26.5193 23.5358 26.5193C25.4634 26.5193 27.0318 24.951 27.0318 23.0233V19.8997H20.0398ZM26.3901 23.0233C26.3901 24.5971 25.1096 25.8776 23.5358 25.8776C21.9631 25.8776 20.6834 24.5972 20.6834 23.0231L20.682 20.5414H26.3901V23.0233Z" fill="#4A555F"/>
<path d="M20.6815 19.8997H13.6914V23.0233C13.6914 24.951 15.2597 26.5193 17.1874 26.5193C19.1149 26.5193 20.6834 24.951 20.6834 23.0231L20.6815 19.8997ZM17.1874 25.8775C15.6136 25.8775 14.3331 24.5971 14.3331 23.0232V20.5412H20.0402L20.0417 23.0232C20.0417 24.5971 18.7612 25.8775 17.1874 25.8775Z" fill="#4A555F"/>
<path d="M21.4938 21.3533V23.023C21.4938 24.149 22.41 25.065 23.5359 25.065C24.6618 25.065 25.5778 24.1489 25.5778 23.023V21.3533H21.4938Z" fill="white"/>
<path d="M27.844 21.3533V23.023C27.844 24.149 28.7602 25.065 29.8861 25.065C31.012 25.065 31.928 24.1489 31.928 23.023V21.3533H27.844Z" fill="white"/>
<path d="M32.7404 19.8997V23.0233C32.7404 24.951 34.3087 26.5193 36.2363 26.5193C38.164 26.5193 39.7323 24.951 39.7323 23.0233V19.8997H32.7404ZM39.0907 23.0233C39.0907 24.5971 37.8102 25.8776 36.2363 25.8776C34.6625 25.8776 33.382 24.5972 33.382 23.0233V20.5413H39.0906V23.0233H39.0907Z" fill="#4A555F"/>
<path d="M34.1942 21.3533V23.023C34.1942 24.149 35.1104 25.065 36.2363 25.065C37.3623 25.065 38.2782 24.1489 38.2782 23.023V21.3533H34.1942Z" fill="white"/>
<path d="M40.5444 21.3533V23.023C40.5444 24.149 41.4606 25.065 42.5866 25.065C43.7125 25.065 44.6285 24.1489 44.6285 23.023V21.3533H40.5444Z" fill="white"/>
<path d="M46.8947 21.3533V23.023C46.8947 24.149 47.8108 25.065 48.9368 25.065C50.0628 25.065 50.9787 24.1489 50.9787 23.023V21.3533H46.8947Z" fill="white"/>
<path d="M14.7313 45.8085C15.115 45.1661 15.322 44.4255 15.322 43.6725C15.322 41.3773 13.4547 39.51 11.1594 39.51C9.51218 39.51 8.0512 40.4564 7.37428 41.9405C5.77925 41.9087 4.46361 43.2014 4.46381 44.7938C4.46381 44.9621 4.47884 45.1299 4.5087 45.2956C3.3324 45.5129 2.45947 46.5323 2.45947 47.7667C2.45947 49.1542 3.58814 50.2829 4.977 50.2829L14.2478 50.2395C15.4841 50.2395 16.4896 49.2338 16.4896 47.9978C16.4897 46.9275 15.7358 46.0301 14.7313 45.8085ZM14.2464 49.5976L4.97568 49.6411C3.94208 49.6411 3.10125 48.8001 3.10125 47.7666C3.10125 46.7482 3.89943 45.9262 4.9184 45.8953L5.34578 45.8823L5.21395 45.4757C5.14204 45.2537 5.10558 45.0242 5.10558 44.7937C5.10558 43.5739 6.09795 42.5816 7.31771 42.5816C7.39561 42.5816 7.4725 42.5857 7.54836 42.5935L7.7913 42.6187L7.88027 42.3912C8.41215 41.0307 9.69936 40.1516 11.1594 40.1516C13.1009 40.1516 14.6803 41.731 14.6803 43.6723C14.6803 44.4846 14.4108 45.2481 13.9011 45.8802L13.4516 46.4379L14.2049 46.3998C14.2191 46.3989 14.2333 46.3977 14.2479 46.3977C15.1303 46.3977 15.8481 47.1154 15.8481 47.9976C15.8479 48.8799 15.1302 49.5976 14.2464 49.5976Z" fill="#4A555F"/>
<path d="M14.2559 47.1467C14.2555 47.1467 11.8196 47.2691 11.8196 47.2691L13.3184 45.4102C13.7197 44.9127 13.9317 44.3117 13.9317 43.6723C13.9317 42.1438 12.6882 40.9001 11.1596 40.9001C10.0101 40.9001 8.99629 41.5924 8.57734 42.6639L8.28068 43.4222L7.47082 43.3381C7.42065 43.3329 7.36946 43.33 7.31797 43.33C6.51106 43.33 5.85445 43.9865 5.85445 44.7934C5.85445 44.9455 5.87873 45.0973 5.92656 45.2447L6.36582 46.6003L4.94141 46.6435C4.32959 46.662 3.85022 47.1553 3.85022 47.7665C3.85022 48.3865 4.35407 48.8911 4.9736 48.8923L14.2482 48.8488C14.7175 48.8488 15.0994 48.467 15.0994 47.9975C15.0992 47.5285 14.7178 47.1467 14.2559 47.1467Z" fill="white"/>
<path d="M49.4053 46.43C49.413 46.3532 49.417 46.277 49.417 46.2016C49.417 44.8897 48.3498 43.8226 47.038 43.8226C46.5569 43.8226 46.0898 43.9705 45.6974 44.239C45.2562 42.9156 43.9943 41.9731 42.5648 41.9731C40.743 41.9731 39.2609 43.4552 39.2609 45.277C39.2609 45.4012 39.2682 45.5262 39.2825 45.6511C38.2896 45.939 37.5752 46.8626 37.5752 47.9194C37.5752 49.2226 38.6353 50.2828 39.9387 50.2828L48.9063 50.2829C49.9867 50.2829 50.8657 49.4039 50.8657 48.3234C50.8657 47.4265 50.2472 46.653 49.4053 46.43ZM48.9062 49.6411L39.9386 49.641C38.9892 49.641 38.2169 48.8687 38.2169 47.9194C38.2169 47.0694 38.8515 46.3378 39.6931 46.2175L40.0328 46.169L39.9618 45.8333C39.9225 45.6485 39.9026 45.4613 39.9026 45.2769C39.9026 43.809 41.0969 42.6147 42.5647 42.6147C43.8671 42.6147 44.997 43.5862 45.1926 44.8744L45.2945 45.5446L45.7481 45.0409C46.0784 44.6744 46.5483 44.4642 47.0379 44.4642C47.9958 44.4642 48.7752 45.2436 48.7752 46.2015C48.7752 46.3353 48.7579 46.4744 48.7234 46.6149L48.6338 46.9816L49.01 47.0109C49.6908 47.0641 50.2239 47.6405 50.2239 48.3232C50.2239 49.05 49.6327 49.6411 48.9062 49.6411Z" fill="#4A555F"/>
<path d="M48.9518 47.7576L47.6972 47.6596L47.9963 46.4372C48.0166 46.3536 48.0266 46.2766 48.0266 46.2017C48.0266 45.6566 47.5831 45.2131 47.0379 45.2131C46.7561 45.2131 46.4957 45.33 46.3046 45.5422L44.7919 47.2211L44.4525 44.9869C44.3119 44.0614 43.5003 43.3635 42.5645 43.3635C41.5094 43.3635 40.6511 44.2219 40.6511 45.2771C40.6511 45.4087 40.6655 45.5437 40.694 45.6782L40.9311 46.797L39.799 46.9587C39.3238 47.0266 38.9655 47.4396 38.9655 47.9195C38.9655 48.456 39.4021 48.8925 39.9385 48.8925L48.9062 48.8926C49.2199 48.8926 49.4752 48.6374 49.4752 48.3235C49.4752 48.0291 49.2453 47.7806 48.9518 47.7576Z" fill="white"/>
<path d="M8.92102 4.84863V12.0666H17.5056V4.84863H8.92102ZM16.8638 11.4249H9.56269V5.49041H16.8638V11.4249Z" fill="#4A555F"/>
<path d="M35.915 4.84863V12.0666H44.5016V4.84863H35.915ZM43.86 11.4249H36.5567V5.49041H43.86V11.4249Z" fill="#4A555F"/>
<path d="M10.054 5.98193V10.9338H17.5055V5.98193H10.054ZM16.8637 10.292H10.6956V6.62361H16.8637V10.292Z" fill="#4A555F"/>
<path d="M16.1151 7.37231H11.4445V9.54342H16.1151V7.37231Z" fill="white"/>
<path d="M35.915 5.98193V10.9338H43.3687V5.98193H35.915ZM42.7269 10.292H36.5568V6.62361H42.7269V10.292Z" fill="#4A555F"/>
<path d="M41.9783 7.37231H37.3054V9.54342H41.9783V7.37231Z" fill="white"/>
<path d="M22.1984 11.4246L19.9512 20.5412H27.0317V11.4246H22.1984ZM26.39 19.8995H20.7705L22.701 12.0663H26.39V19.8995Z" fill="#4A555F"/>
<path d="M23.3373 12.8784L21.8069 19.0872H25.5778V12.8784H23.3373Z" fill="white"/>
<path d="M19.2138 12.8784L15.8998 19.0872H19.4731L21.0036 12.8784H19.2138Z" fill="white"/>
<path d="M13.8502 11.4246L7.01904 20.5412H14.2047L19.0691 11.4246H13.8502ZM13.8199 19.8995H8.30157L14.1711 12.0663H17.9992L13.8199 19.8995Z" fill="#4A555F"/>
<path d="M7.66124 19.8997H1.31095C1.13382 19.8997 0.990112 20.0434 0.990112 20.2205V23.0233C0.990112 24.951 2.55844 26.5193 4.4861 26.5193C6.41375 26.5193 7.98208 24.951 7.98208 23.0233V20.2205C7.98208 20.0433 7.83837 19.8997 7.66124 19.8997ZM7.34031 23.0233C7.34031 24.5971 6.05981 25.8776 4.486 25.8776C2.91218 25.8776 1.63178 24.5971 1.63178 23.0233V20.5413H7.34041V23.0233H7.34031Z" fill="#4A555F"/>
<path d="M14.3051 11.6019C14.2508 11.4932 14.1397 11.4246 14.0181 11.4246H9.23198C9.14321 11.4246 9.05821 11.4614 8.99757 11.5263L1.07651 20.0012C0.989168 20.0945 0.965605 20.2308 1.01659 20.348C1.06757 20.4652 1.18305 20.5411 1.31092 20.5411H7.66121C7.76207 20.5411 7.85733 20.4936 7.91796 20.4128L14.2749 11.938C14.3477 11.8407 14.3595 11.7106 14.3051 11.6019ZM7.50075 19.8994H2.04999L9.37143 12.0662H13.3764L7.50075 19.8994Z" fill="#4A555F"/>
<path d="M52.1098 19.8997H45.7618C45.5847 19.8997 45.4412 20.0432 45.441 20.2203L45.4387 23.0233C45.4387 24.951 47.0071 26.5193 48.9347 26.5193C50.8624 26.5193 52.4307 24.951 52.4307 23.0233V20.2205C52.4306 20.0433 52.2869 19.8997 52.1098 19.8997ZM51.7889 23.0233C51.7889 24.5971 50.5084 25.8776 48.9346 25.8776C47.3608 25.8776 46.0803 24.5972 46.0803 23.0236L46.0824 20.5414H51.7889V23.0233Z" fill="#4A555F"/>
<path d="M52.3442 20.0012L44.423 11.5263C44.3624 11.4614 44.2774 11.4246 44.1886 11.4246H39.4114C39.2899 11.4246 39.179 11.4932 39.1244 11.6019C39.0701 11.7106 39.0819 11.8406 39.1547 11.9379L45.5049 20.4127C45.5655 20.4936 45.6605 20.5412 45.7616 20.5412H52.1096C52.2374 20.5412 52.3529 20.4654 52.4039 20.3481C52.455 20.2308 52.4314 20.0945 52.3442 20.0012ZM45.9222 19.8994L40.0528 12.0662H44.0493L51.3706 19.8994H45.9222Z" fill="#4A555F"/>
<path d="M14.5772 12.8784L9.92505 19.0872H13.3308L16.6448 12.8784H14.5772Z" fill="white"/>
<path d="M9.73296 12.8784L3.92236 19.0872H7.09355L11.7457 12.8784H9.73296Z" fill="white"/>
<path d="M31.2236 11.4246H26.3901V20.5412H33.4709L31.2236 11.4246ZM27.0318 12.0663H30.7211L32.6516 19.8995H27.0318V12.0663Z" fill="#4A555F"/>
<path d="M30.0847 12.8784H27.844V19.0872H31.6149L30.0847 12.8784Z" fill="white"/>
<path d="M34.2083 12.8784H32.4185L33.9488 19.0872H37.5224L34.2083 12.8784Z" fill="white"/>
<path d="M39.5719 11.4246H34.353L39.2192 20.5412H46.4031L39.5719 11.4246ZM35.423 12.0663H39.2511L45.1206 19.8995H39.604L35.423 12.0663Z" fill="#4A555F"/>
<path d="M38.8447 12.8784H36.7771L40.0911 19.0872H43.4969L38.8447 12.8784Z" fill="white"/>
<path d="M43.6889 12.8784H41.6763L46.3284 19.0872H49.4996L43.6889 12.8784Z" fill="white"/>
<path d="M16.8649 3.28296V12.0663H36.5571V3.28296H16.8649ZM35.9155 11.4246H17.5065V3.92473H35.9155V11.4246Z" fill="#4A555F"/>
<path d="M35.1669 4.67334H18.2551V10.676H35.1669V4.67334Z" fill="white"/>
<path d="M5.75293 1.71704V5.49049H17.5055V3.9246H35.9151V5.49049H47.2166V1.71704H5.75293ZM46.575 4.84872H36.5567V3.28283H16.8638V4.84872H6.3946V2.35871H46.575V4.84872Z" fill="#4A555F"/>
<path d="M7.14343 4.10034H16.1151V3.10767H7.14343V4.10034ZM37.3056 3.10767V4.10034H45.8263V3.10767H37.3056Z" fill="white"/>
<path d="M22.988 34.2468V50.2829H31.0662V34.2468H22.988ZM30.4244 49.6413H23.6297V34.8886H30.4244V49.6413Z" fill="#4A555F"/>
<path d="M21.6602 32.8445V50.2831H32.3921V32.8445H21.6602ZM31.7504 49.6413H22.3018V33.4862H31.7504V49.6413Z" fill="#4A555F"/>
<path d="M25.2127 40.8308C24.5986 40.8308 24.0989 41.3304 24.0989 41.9445C24.0989 42.5587 24.5985 43.0583 25.2127 43.0583C25.8269 43.0583 26.3264 42.5587 26.3264 41.9445C26.3265 41.3305 25.8269 40.8308 25.2127 40.8308ZM25.2127 42.4166C24.9524 42.4166 24.7407 42.2048 24.7407 41.9445C24.7407 41.6842 24.9524 41.4725 25.2127 41.4725C25.4729 41.4725 25.6848 41.6842 25.6848 41.9445C25.6848 42.2048 25.473 42.4166 25.2127 42.4166Z" fill="#4A555F"/>
<path d="M38.9916 29.9111C36.9545 29.9111 35.2974 31.5683 35.2974 33.6054C35.2974 35.6424 36.9545 37.2997 38.9916 37.2997C41.0287 37.2997 42.686 35.6424 42.686 33.6054C42.686 31.5684 41.0287 29.9111 38.9916 29.9111ZM38.9916 36.658C37.3083 36.658 35.939 35.2887 35.939 33.6054C35.939 31.9222 37.3083 30.5528 38.9916 30.5528C40.6748 30.5528 42.0444 31.9222 42.0444 33.6054C42.0444 35.2887 40.6748 36.658 38.9916 36.658Z" fill="#4A555F"/>
<path d="M39.3125 30.2319H38.6708V36.9788H39.3125V30.2319Z" fill="#4A555F"/>
<path d="M42.365 33.2844H35.6182V33.9261H42.365V33.2844Z" fill="#4A555F"/>
<path d="M14.6909 29.9111C12.6538 29.9111 10.9967 31.5683 10.9967 33.6054C10.9967 35.6424 12.6538 37.2997 14.6909 37.2997C16.7281 37.2997 18.3852 35.6424 18.3852 33.6054C18.3852 31.5684 16.728 29.9111 14.6909 29.9111ZM14.6909 36.658C13.0077 36.658 11.6384 35.2887 11.6384 33.6054C11.6384 31.9222 13.0076 30.5528 14.6909 30.5528C16.3742 30.5528 17.7435 31.9222 17.7435 33.6054C17.7435 35.2887 16.3741 36.658 14.6909 36.658Z" fill="#4A555F"/>
<path d="M15.0118 30.2319H14.3701V36.9788H15.0118V30.2319Z" fill="#4A555F"/>
<path d="M18.0643 33.2844H11.3175V33.9261H18.0643V33.2844Z" fill="#4A555F"/>
<path d="M31.4724 6.20361H21.807V6.84529H31.4724V6.20361Z" fill="#4A555F"/>
<path d="M24.3738 9.1092H25.0155V8.46753H24.3738V9.1092ZM25.6572 9.1092H26.2989V8.46753H25.6572V9.1092ZM21.807 9.1092H22.4487V8.46753H21.807V9.1092ZM23.0904 9.1092H23.732V8.46753H23.0904V9.1092ZM28.224 9.1092H28.8658V8.46753H28.224V9.1092ZM26.9407 9.1092H27.5824V8.46753H26.9407V9.1092ZM30.7909 8.46753V9.1092H31.4326V8.46753H30.7909ZM29.5076 9.1092H30.1492V8.46753H29.5076V9.1092Z" fill="#4A555F"/>
</g>
<defs>
<clipPath id="clip0_94_2448">
<rect width="52" height="52" fill="white" transform="translate(0.98999)"/>
</clipPath>
</defs>
</svg>
