<svg width="129" height="129" viewBox="0 0 129 129" fill="none" xmlns="http://www.w3.org/2000/svg">
<g opacity="0.1">
<path d="M64.0695 0C99.4295 0 128.139 28.7096 128.139 64.0695C128.139 99.4295 99.4295 128.139 64.0695 128.139C28.7096 128.139 0 99.4295 0 64.0695C0 28.7096 28.7096 0 64.0695 0Z" fill="#5FCE2F"/>
</g>
<g opacity="0.2">
<path d="M64.0696 7.82507C95.1109 7.82507 120.314 33.0282 120.314 64.0695C120.314 95.1108 95.1109 120.314 64.0696 120.314C33.0283 120.314 7.82513 95.1108 7.82513 64.0695C7.82513 33.0282 33.0283 7.82507 64.0696 7.82507Z" fill="#5FCE2F"/>
</g>
<path d="M64.0696 18.5852C89.1723 18.5852 109.554 38.9667 109.554 64.0695C109.554 89.1723 89.1723 109.554 64.0696 109.554C38.9668 109.554 18.5853 89.1723 18.5853 64.0695C18.5853 38.9667 38.9668 18.5852 64.0696 18.5852Z" fill="#5FCE2F"/>
<path d="M40.2849 69.8323C45.7926 74.25 56.8084 83.0851 56.8084 83.0851C56.8084 83.0851 77.05 60.5229 87.1707 49.242" stroke="white" stroke-width="11.7904" stroke-linecap="round" stroke-linejoin="round"/>
</svg>
