<svg width="20" height="21" viewBox="0 0 20 21" fill="none" xmlns="http://www.w3.org/2000/svg">
<path d="M3.33337 5.86361H16.6667M8.33337 9.19694V14.1969M11.6667 9.19694V14.1969M4.16671 5.86361L5.00004 15.8636C5.00004 16.3056 5.17564 16.7296 5.4882 17.0421C5.80076 17.3547 6.22468 17.5303 6.66671 17.5303H13.3334C13.7754 17.5303 14.1993 17.3547 14.5119 17.0421C14.8244 16.7296 15 16.3056 15 15.8636L15.8334 5.86361M7.50004 5.86361V3.36361C7.50004 3.14259 7.58784 2.93063 7.74412 2.77435C7.9004 2.61807 8.11236 2.53027 8.33337 2.53027H11.6667C11.8877 2.53027 12.0997 2.61807 12.256 2.77435C12.4122 2.93063 12.5 3.14259 12.5 3.36361V5.86361" stroke="#FF6243" stroke-width="1.5" stroke-linecap="round" stroke-linejoin="round"/>
</svg>
